<svg width="140" height="31" viewBox="0 0 140 31" fill="none" xmlns="http://www.w3.org/2000/svg">
<line y1="28" x2="30" y2="28" stroke="#F24957" stroke-width="4"/>
<line y1="4" x2="30" y2="4" stroke="#F24957" stroke-width="4"/>
<line y1="20" x2="30" y2="20" stroke="#F24957" stroke-width="4"/>
<line y1="12" x2="30" y2="12" stroke="#F24957" stroke-width="4"/>
<path d="M39.064 10.592C39.6827 10.592 40.1413 10.4693 40.44 10.224C40.7387 9.968 40.888 9.65333 40.888 9.28C40.888 8.94933 40.7707 8.68267 40.536 8.48C40.312 8.26667 39.9653 8.09067 39.496 7.952L38.456 7.632C37.9227 7.45067 37.4533 7.248 37.048 7.024C36.6533 6.8 36.344 6.512 36.12 6.16C35.9067 5.79733 35.8 5.35467 35.8 4.832C35.8 3.968 36.12 3.28533 36.76 2.784C37.4107 2.28267 38.296 2.032 39.416 2.032C40.0133 2.032 40.5413 2.096 41 2.224C41.4693 2.34133 41.8373 2.50667 42.104 2.72C42.3813 2.93333 42.52 3.184 42.52 3.472C42.52 3.67467 42.4667 3.856 42.36 4.016C42.264 4.16533 42.1413 4.288 41.992 4.384C41.7467 4.20267 41.4107 4.048 40.984 3.92C40.5573 3.78133 40.0933 3.712 39.592 3.712C39.0373 3.712 38.6107 3.81333 38.312 4.016C38.0133 4.21867 37.864 4.49067 37.864 4.832C37.864 5.10933 37.9653 5.33333 38.168 5.504C38.3813 5.67467 38.7013 5.824 39.128 5.952L40.056 6.224C40.9733 6.50133 41.688 6.88 42.2 7.36C42.712 7.82933 42.968 8.47467 42.968 9.296C42.968 10.1707 42.632 10.88 41.96 11.424C41.2987 11.968 40.3493 12.24 39.112 12.24C38.4613 12.24 37.8853 12.1707 37.384 12.032C36.8827 11.8933 36.4827 11.7013 36.184 11.456C35.896 11.2107 35.752 10.9333 35.752 10.624C35.752 10.3893 35.8267 10.1867 35.976 10.016C36.1253 9.84533 36.2853 9.71733 36.456 9.632C36.7333 9.86667 37.0907 10.0853 37.528 10.288C37.9653 10.4907 38.4773 10.592 39.064 10.592ZM45.513 9.216L45.433 7.84L49.721 7.2C49.689 6.79467 49.5343 6.44267 49.257 6.144C48.9797 5.84533 48.5743 5.696 48.041 5.696C47.497 5.696 47.0437 5.888 46.681 6.272C46.3183 6.64533 46.1317 7.184 46.121 7.888L46.169 8.72C46.265 9.40267 46.5263 9.904 46.953 10.224C47.3903 10.544 47.9397 10.704 48.601 10.704C49.049 10.704 49.465 10.64 49.849 10.512C50.233 10.3733 50.537 10.224 50.761 10.064C50.9103 10.16 51.0277 10.2827 51.113 10.432C51.209 10.5707 51.257 10.7253 51.257 10.896C51.257 11.1733 51.1343 11.4133 50.889 11.616C50.6437 11.808 50.313 11.9573 49.897 12.064C49.481 12.1707 49.0063 12.224 48.473 12.224C47.6517 12.224 46.921 12.0747 46.281 11.776C45.6517 11.4667 45.1557 11.008 44.793 10.4C44.441 9.792 44.265 9.03467 44.265 8.128C44.265 7.47733 44.3663 6.90667 44.569 6.416C44.7717 5.92533 45.0437 5.52 45.385 5.2C45.737 4.86933 46.1423 4.624 46.601 4.464C47.0597 4.29333 47.5397 4.208 48.041 4.208C48.745 4.208 49.3583 4.352 49.881 4.64C50.4143 4.91733 50.8303 5.30667 51.129 5.808C51.4383 6.30933 51.593 6.88533 51.593 7.536C51.593 7.83467 51.513 8.05867 51.353 8.208C51.2037 8.34667 50.9903 8.432 50.713 8.464L45.513 9.216ZM60.1723 7.056V8.608H58.2043V7.136C58.2043 6.66667 58.0709 6.32533 57.8043 6.112C57.5376 5.888 57.1803 5.776 56.7323 5.776C56.4016 5.776 56.1029 5.81867 55.8363 5.904C55.5803 5.97867 55.3509 6.06933 55.1483 6.176V8.608H53.1803V6.048C53.1803 5.792 53.2336 5.584 53.3403 5.424C53.4469 5.25333 53.6069 5.09867 53.8203 4.96C54.1403 4.74667 54.5509 4.57067 55.0523 4.432C55.5643 4.28267 56.1296 4.208 56.7483 4.208C57.8256 4.208 58.6629 4.448 59.2603 4.928C59.8683 5.408 60.1723 6.11733 60.1723 7.056ZM53.1803 7.824H55.1483V11.968C55.0629 12 54.9403 12.0267 54.7803 12.048C54.6203 12.08 54.4443 12.096 54.2523 12.096C53.8896 12.096 53.6176 12.032 53.4363 11.904C53.2656 11.7653 53.1803 11.5253 53.1803 11.184V7.824ZM58.2043 7.824H60.1723V11.968C60.0976 12 59.9749 12.0267 59.8043 12.048C59.6443 12.08 59.4736 12.096 59.2923 12.096C58.9189 12.096 58.6416 12.032 58.4603 11.904C58.2896 11.7653 58.2043 11.5253 58.2043 11.184V7.824ZM65.2188 10.736C65.5388 10.736 65.8268 10.704 66.0828 10.64C66.3388 10.576 66.5254 10.5067 66.6428 10.432V8.608L65.0588 8.768C64.6214 8.8 64.2854 8.896 64.0508 9.056C63.8268 9.20533 63.7148 9.42933 63.7148 9.728C63.7148 10.0373 63.8374 10.2827 64.0828 10.464C64.3281 10.6453 64.7068 10.736 65.2188 10.736ZM65.1388 4.208C66.1841 4.208 67.0161 4.432 67.6348 4.88C68.2534 5.31733 68.5628 6.01067 68.5628 6.96V10.64C68.5628 10.896 68.4988 11.0987 68.3708 11.248C68.2534 11.3973 68.0988 11.5307 67.9068 11.648C67.6081 11.8187 67.2294 11.9573 66.7708 12.064C66.3121 12.1813 65.7948 12.24 65.2188 12.24C64.1521 12.24 63.3148 12.0373 62.7068 11.632C62.0988 11.216 61.7948 10.6027 61.7948 9.792C61.7948 9.07733 62.0188 8.53333 62.4668 8.16C62.9254 7.776 63.5868 7.54133 64.4508 7.456L66.6268 7.232V6.944C66.6268 6.51733 66.4774 6.208 66.1788 6.016C65.8908 5.824 65.4801 5.728 64.9468 5.728C64.5308 5.728 64.1254 5.78133 63.7308 5.888C63.3361 5.99467 62.9841 6.12267 62.6748 6.272C62.5681 6.18667 62.4721 6.06933 62.3868 5.92C62.3014 5.77067 62.2588 5.616 62.2588 5.456C62.2588 5.072 62.4721 4.78933 62.8988 4.608C63.1974 4.46933 63.5441 4.368 63.9388 4.304C64.3441 4.24 64.7441 4.208 65.1388 4.208ZM70.4905 2.176C70.4905 1.86667 70.5972 1.60533 70.8105 1.392C71.0345 1.17867 71.3118 1.072 71.6425 1.072C71.9838 1.072 72.2558 1.17867 72.4585 1.392C72.6718 1.60533 72.7785 1.86667 72.7785 2.176C72.7785 2.47467 72.6718 2.736 72.4585 2.96C72.2558 3.17333 71.9838 3.28 71.6425 3.28C71.3118 3.28 71.0345 3.17333 70.8105 2.96C70.5972 2.736 70.4905 2.47467 70.4905 2.176ZM70.6505 7.776H72.6345V11.968C72.5492 12 72.4265 12.0267 72.2665 12.048C72.1065 12.08 71.9305 12.096 71.7385 12.096C71.3758 12.096 71.1038 12.032 70.9225 11.904C70.7412 11.7653 70.6505 11.5253 70.6505 11.184V7.776ZM72.6345 8.784H70.6505V4.496C70.7358 4.464 70.8585 4.43733 71.0185 4.416C71.1892 4.384 71.3705 4.368 71.5625 4.368C71.9358 4.368 72.2078 4.43733 72.3785 4.576C72.5492 4.704 72.6345 4.944 72.6345 5.296V8.784ZM38.248 24.992H39.576C40.2053 24.992 40.7067 24.8533 41.08 24.576C41.4533 24.2987 41.64 23.888 41.64 23.344C41.64 22.8107 41.4533 22.4053 41.08 22.128C40.7067 21.8507 40.1573 21.712 39.432 21.712C39.2187 21.712 39.0107 21.7227 38.808 21.744C38.6053 21.7547 38.4187 21.776 38.248 21.808V24.992ZM39.72 26.576H36.232V21.088C36.232 20.896 36.2853 20.7467 36.392 20.64C36.5093 20.5333 36.6587 20.448 36.84 20.384C37.1813 20.2773 37.5813 20.1973 38.04 20.144C38.5093 20.0907 38.984 20.064 39.464 20.064C40.872 20.064 41.9227 20.3573 42.616 20.944C43.32 21.52 43.672 22.3147 43.672 23.328C43.672 23.968 43.5067 24.5333 43.176 25.024C42.856 25.5147 42.4027 25.8987 41.816 26.176C41.2293 26.4427 40.5307 26.576 39.72 26.576ZM39.448 26.064L41.176 25.568C41.4427 25.92 41.7147 26.2773 41.992 26.64C42.28 26.992 42.552 27.3387 42.808 27.68C43.0747 28.0107 43.3093 28.3147 43.512 28.592C43.7253 28.8693 43.8907 29.0987 44.008 29.28C43.9333 29.5467 43.7893 29.7547 43.576 29.904C43.3733 30.0533 43.1493 30.128 42.904 30.128C42.584 30.128 42.3333 30.0587 42.152 29.92C41.9813 29.7707 41.816 29.5733 41.656 29.328L39.448 26.064ZM36.232 25.872H38.264V29.968C38.1787 30 38.0453 30.0267 37.864 30.048C37.6933 30.08 37.512 30.096 37.32 30.096C36.936 30.096 36.6587 30.0267 36.488 29.888C36.3173 29.7387 36.232 29.4933 36.232 29.152V25.872ZM45.5061 20.176C45.5061 19.8667 45.6128 19.6053 45.8261 19.392C46.0501 19.1787 46.3275 19.072 46.6581 19.072C46.9995 19.072 47.2715 19.1787 47.4741 19.392C47.6875 19.6053 47.7941 19.8667 47.7941 20.176C47.7941 20.4747 47.6875 20.736 47.4741 20.96C47.2715 21.1733 46.9995 21.28 46.6581 21.28C46.3275 21.28 46.0501 21.1733 45.8261 20.96C45.6128 20.736 45.5061 20.4747 45.5061 20.176ZM45.6661 25.776H47.6501V29.968C47.5648 30 47.4421 30.0267 47.2821 30.048C47.1221 30.08 46.9461 30.096 46.7541 30.096C46.3915 30.096 46.1195 30.032 45.9381 29.904C45.7568 29.7653 45.6661 29.5253 45.6661 29.184V25.776ZM47.6501 26.784H45.6661V22.496C45.7515 22.464 45.8741 22.4373 46.0341 22.416C46.2048 22.384 46.3861 22.368 46.5781 22.368C46.9515 22.368 47.2235 22.4373 47.3941 22.576C47.5648 22.704 47.6501 22.944 47.6501 23.296V26.784ZM53.662 23.792C53.022 23.792 52.4833 24 52.046 24.416C51.6193 24.832 51.406 25.44 51.406 26.24C51.406 27.0293 51.614 27.6267 52.03 28.032C52.446 28.4373 52.9847 28.64 53.646 28.64C54.0407 28.64 54.3713 28.592 54.638 28.496C54.9153 28.3893 55.1553 28.2773 55.358 28.16C55.518 28.256 55.6407 28.3733 55.726 28.512C55.822 28.64 55.87 28.8 55.87 28.992C55.87 29.3547 55.6513 29.6533 55.214 29.888C54.7767 30.112 54.2007 30.224 53.486 30.224C52.6753 30.224 51.9607 30.08 51.342 29.792C50.734 29.4933 50.254 29.0453 49.902 28.448C49.5607 27.8507 49.39 27.1147 49.39 26.24C49.39 25.3333 49.5713 24.5813 49.934 23.984C50.3073 23.3867 50.798 22.944 51.406 22.656C52.0247 22.3573 52.702 22.208 53.438 22.208C54.142 22.208 54.7073 22.3307 55.134 22.576C55.5607 22.8213 55.774 23.1253 55.774 23.488C55.774 23.648 55.7313 23.7973 55.646 23.936C55.5607 24.0747 55.4593 24.1867 55.342 24.272C55.1287 24.144 54.8887 24.032 54.622 23.936C54.3553 23.84 54.0353 23.792 53.662 23.792ZM60.5156 28.736C60.8356 28.736 61.1236 28.704 61.3796 28.64C61.6356 28.576 61.8223 28.5067 61.9396 28.432V26.608L60.3556 26.768C59.9183 26.8 59.5823 26.896 59.3476 27.056C59.1236 27.2053 59.0116 27.4293 59.0116 27.728C59.0116 28.0373 59.1343 28.2827 59.3796 28.464C59.625 28.6453 60.0036 28.736 60.5156 28.736ZM60.4356 22.208C61.481 22.208 62.313 22.432 62.9316 22.88C63.5503 23.3173 63.8596 24.0107 63.8596 24.96V28.64C63.8596 28.896 63.7956 29.0987 63.6676 29.248C63.5503 29.3973 63.3956 29.5307 63.2036 29.648C62.905 29.8187 62.5263 29.9573 62.0676 30.064C61.609 30.1813 61.0916 30.24 60.5156 30.24C59.449 30.24 58.6116 30.0373 58.0036 29.632C57.3956 29.216 57.0916 28.6027 57.0916 27.792C57.0916 27.0773 57.3156 26.5333 57.7636 26.16C58.2223 25.776 58.8836 25.5413 59.7476 25.456L61.9236 25.232V24.944C61.9236 24.5173 61.7743 24.208 61.4756 24.016C61.1876 23.824 60.777 23.728 60.2436 23.728C59.8276 23.728 59.4223 23.7813 59.0276 23.888C58.633 23.9947 58.281 24.1227 57.9716 24.272C57.865 24.1867 57.769 24.0693 57.6836 23.92C57.5983 23.7707 57.5556 23.616 57.5556 23.456C57.5556 23.072 57.769 22.7893 58.1956 22.608C58.4943 22.4693 58.841 22.368 59.2356 22.304C59.641 22.24 60.041 22.208 60.4356 22.208ZM67.8514 24.24V26.432H65.8834V24.08C65.8834 23.8133 65.9474 23.5893 66.0754 23.408C66.2034 23.216 66.3847 23.04 66.6194 22.88C66.9394 22.688 67.3447 22.528 67.8354 22.4C68.326 22.272 68.854 22.208 69.4194 22.208C70.422 22.208 70.9234 22.5173 70.9234 23.136C70.9234 23.2853 70.902 23.424 70.8594 23.552C70.8167 23.6693 70.7634 23.776 70.6994 23.872C70.5927 23.8507 70.4594 23.8347 70.2994 23.824C70.1394 23.8027 69.9687 23.792 69.7874 23.792C69.4034 23.792 69.0407 23.8347 68.6994 23.92C68.3687 23.9947 68.086 24.1013 67.8514 24.24ZM65.8834 25.776L67.8514 25.872V29.968C67.766 30 67.6434 30.0267 67.4834 30.048C67.3234 30.08 67.1474 30.096 66.9554 30.096C66.5927 30.096 66.3207 30.032 66.1394 29.904C65.9687 29.7653 65.8834 29.5253 65.8834 29.184V25.776ZM77.0164 28.336V23.312H78.9844V28.544C78.9844 28.7787 78.931 28.976 78.8244 29.136C78.7284 29.2853 78.5684 29.4293 78.3444 29.568C78.0884 29.7387 77.7364 29.888 77.2884 30.016C76.851 30.1547 76.3497 30.224 75.7844 30.224C74.9417 30.224 74.2057 30.0853 73.5764 29.808C72.9577 29.52 72.4777 29.0827 72.1364 28.496C71.795 27.8987 71.6244 27.1467 71.6244 26.24C71.6244 25.312 71.795 24.5493 72.1364 23.952C72.4884 23.3547 72.9577 22.9173 73.5444 22.64C74.131 22.352 74.7817 22.208 75.4964 22.208C75.891 22.208 76.2484 22.256 76.5684 22.352C76.899 22.448 77.1657 22.56 77.3684 22.688V24.368C77.1977 24.208 76.9737 24.0693 76.6964 23.952C76.419 23.8347 76.099 23.776 75.7364 23.776C75.3417 23.776 74.9844 23.8613 74.6644 24.032C74.3444 24.192 74.0937 24.4587 73.9124 24.832C73.731 25.1947 73.6404 25.6693 73.6404 26.256C73.6404 27.088 73.8324 27.696 74.2164 28.08C74.6004 28.464 75.1177 28.656 75.7684 28.656C76.0564 28.656 76.3017 28.624 76.5044 28.56C76.707 28.496 76.8777 28.4213 77.0164 28.336ZM78.9844 23.712L77.0164 23.728V19.6C77.091 19.5787 77.2084 19.552 77.3684 19.52C77.539 19.488 77.715 19.472 77.8964 19.472C78.2804 19.472 78.5577 19.5413 78.7284 19.68C78.899 19.808 78.9844 20.0427 78.9844 20.384V23.712ZM88.4949 26.208C88.4949 27.0293 88.3349 27.744 88.0149 28.352C87.6949 28.9493 87.2415 29.4133 86.6549 29.744C86.0789 30.064 85.3962 30.224 84.6069 30.224C83.8175 30.224 83.1295 30.064 82.5429 29.744C81.9562 29.4133 81.4975 28.9493 81.1669 28.352C80.8469 27.7547 80.6869 27.04 80.6869 26.208C80.6869 25.3867 80.8522 24.6773 81.1829 24.08C81.5135 23.4827 81.9722 23.024 82.5589 22.704C83.1455 22.3733 83.8282 22.208 84.6069 22.208C85.3855 22.208 86.0629 22.3733 86.6389 22.704C87.2255 23.024 87.6789 23.488 87.9989 24.096C88.3295 24.6933 88.4949 25.3973 88.4949 26.208ZM84.6069 23.776C84.0202 23.776 83.5562 23.9893 83.2149 24.416C82.8842 24.8427 82.7189 25.44 82.7189 26.208C82.7189 26.9973 82.8842 27.6053 83.2149 28.032C83.5455 28.448 84.0095 28.656 84.6069 28.656C85.1935 28.656 85.6522 28.4427 85.9829 28.016C86.3135 27.5893 86.4789 26.9867 86.4789 26.208C86.4789 25.4507 86.3135 24.8587 85.9829 24.432C85.6522 23.9947 85.1935 23.776 84.6069 23.776ZM93.5914 23.648H95.6234V29.888L94.6794 30.016C94.3487 30.016 94.082 29.92 93.8794 29.728C93.6874 29.5253 93.5914 29.264 93.5914 28.944V23.648ZM94.6794 30.016V28.352H99.7674C99.8314 28.4373 99.8847 28.5493 99.9274 28.688C99.9807 28.8267 100.007 28.9813 100.007 29.152C100.007 29.44 99.938 29.6587 99.7994 29.808C99.6714 29.9467 99.4954 30.016 99.2714 30.016H94.6794ZM95.6234 25.92H93.5914V20.288C93.6874 20.2667 93.8207 20.24 93.9914 20.208C94.1727 20.176 94.354 20.16 94.5354 20.16C94.9194 20.16 95.1967 20.2293 95.3674 20.368C95.538 20.496 95.6234 20.7413 95.6234 21.104V25.92ZM102.201 27.216L102.121 25.84L106.409 25.2C106.377 24.7947 106.222 24.4427 105.945 24.144C105.667 23.8453 105.262 23.696 104.729 23.696C104.185 23.696 103.731 23.888 103.369 24.272C103.006 24.6453 102.819 25.184 102.809 25.888L102.857 26.72C102.953 27.4027 103.214 27.904 103.641 28.224C104.078 28.544 104.627 28.704 105.289 28.704C105.737 28.704 106.153 28.64 106.537 28.512C106.921 28.3733 107.225 28.224 107.449 28.064C107.598 28.16 107.715 28.2827 107.801 28.432C107.897 28.5707 107.945 28.7253 107.945 28.896C107.945 29.1733 107.822 29.4133 107.577 29.616C107.331 29.808 107.001 29.9573 106.585 30.064C106.169 30.1707 105.694 30.224 105.161 30.224C104.339 30.224 103.609 30.0747 102.969 29.776C102.339 29.4667 101.843 29.008 101.481 28.4C101.129 27.792 100.953 27.0347 100.953 26.128C100.953 25.4773 101.054 24.9067 101.257 24.416C101.459 23.9253 101.731 23.52 102.073 23.2C102.425 22.8693 102.83 22.624 103.289 22.464C103.747 22.2933 104.227 22.208 104.729 22.208C105.433 22.208 106.046 22.352 106.569 22.64C107.102 22.9173 107.518 23.3067 107.817 23.808C108.126 24.3093 108.281 24.8853 108.281 25.536C108.281 25.8347 108.201 26.0587 108.041 26.208C107.891 26.3467 107.678 26.432 107.401 26.464L102.201 27.216ZM111.836 24.24V26.432H109.868V24.08C109.868 23.8133 109.932 23.5893 110.06 23.408C110.188 23.216 110.369 23.04 110.604 22.88C110.924 22.688 111.329 22.528 111.82 22.4C112.31 22.272 112.838 22.208 113.404 22.208C114.406 22.208 114.908 22.5173 114.908 23.136C114.908 23.2853 114.886 23.424 114.844 23.552C114.801 23.6693 114.748 23.776 114.684 23.872C114.577 23.8507 114.444 23.8347 114.284 23.824C114.124 23.8027 113.953 23.792 113.772 23.792C113.388 23.792 113.025 23.8347 112.684 23.92C112.353 23.9947 112.07 24.1013 111.836 24.24ZM109.868 25.776L111.836 25.872V29.968C111.75 30 111.628 30.0267 111.468 30.048C111.308 30.08 111.132 30.096 110.94 30.096C110.577 30.096 110.305 30.032 110.124 29.904C109.953 29.7653 109.868 29.5253 109.868 29.184V25.776ZM123.094 25.056V26.608H121.126V25.136C121.126 24.6667 120.993 24.3253 120.726 24.112C120.459 23.888 120.102 23.776 119.654 23.776C119.323 23.776 119.025 23.8187 118.758 23.904C118.502 23.9787 118.273 24.0693 118.07 24.176V26.608H116.102V24.048C116.102 23.792 116.155 23.584 116.262 23.424C116.369 23.2533 116.529 23.0987 116.742 22.96C117.062 22.7467 117.473 22.5707 117.974 22.432C118.486 22.2827 119.051 22.208 119.67 22.208C120.747 22.208 121.585 22.448 122.182 22.928C122.79 23.408 123.094 24.1173 123.094 25.056ZM116.102 25.824H118.07V29.968C117.985 30 117.862 30.0267 117.702 30.048C117.542 30.08 117.366 30.096 117.174 30.096C116.811 30.096 116.539 30.032 116.358 29.904C116.187 29.7653 116.102 29.5253 116.102 29.184V25.824ZM121.126 25.824H123.094V29.968C123.019 30 122.897 30.0267 122.726 30.048C122.566 30.08 122.395 30.096 122.214 30.096C121.841 30.096 121.563 30.032 121.382 29.904C121.211 29.7653 121.126 29.5253 121.126 29.184V25.824ZM126.029 27.216L125.949 25.84L130.237 25.2C130.205 24.7947 130.05 24.4427 129.773 24.144C129.495 23.8453 129.09 23.696 128.557 23.696C128.013 23.696 127.559 23.888 127.197 24.272C126.834 24.6453 126.647 25.184 126.637 25.888L126.685 26.72C126.781 27.4027 127.042 27.904 127.469 28.224C127.906 28.544 128.455 28.704 129.117 28.704C129.565 28.704 129.981 28.64 130.365 28.512C130.749 28.3733 131.053 28.224 131.277 28.064C131.426 28.16 131.543 28.2827 131.629 28.432C131.725 28.5707 131.773 28.7253 131.773 28.896C131.773 29.1733 131.65 29.4133 131.405 29.616C131.159 29.808 130.829 29.9573 130.413 30.064C129.997 30.1707 129.522 30.224 128.989 30.224C128.167 30.224 127.437 30.0747 126.797 29.776C126.167 29.4667 125.671 29.008 125.309 28.4C124.957 27.792 124.781 27.0347 124.781 26.128C124.781 25.4773 124.882 24.9067 125.085 24.416C125.287 23.9253 125.559 23.52 125.901 23.2C126.253 22.8693 126.658 22.624 127.117 22.464C127.575 22.2933 128.055 22.208 128.557 22.208C129.261 22.208 129.874 22.352 130.397 22.64C130.93 22.9173 131.346 23.3067 131.645 23.808C131.954 24.3093 132.109 24.8853 132.109 25.536C132.109 25.8347 132.029 26.0587 131.869 26.208C131.719 26.3467 131.506 26.432 131.229 26.464L126.029 27.216ZM135.664 24.24V26.432H133.696V24.08C133.696 23.8133 133.76 23.5893 133.888 23.408C134.016 23.216 134.197 23.04 134.432 22.88C134.752 22.688 135.157 22.528 135.648 22.4C136.139 22.272 136.667 22.208 137.232 22.208C138.235 22.208 138.736 22.5173 138.736 23.136C138.736 23.2853 138.715 23.424 138.672 23.552C138.629 23.6693 138.576 23.776 138.512 23.872C138.405 23.8507 138.272 23.8347 138.112 23.824C137.952 23.8027 137.781 23.792 137.6 23.792C137.216 23.792 136.853 23.8347 136.512 23.92C136.181 23.9947 135.899 24.1013 135.664 24.24ZM133.696 25.776L135.664 25.872V29.968C135.579 30 135.456 30.0267 135.296 30.048C135.136 30.08 134.96 30.096 134.768 30.096C134.405 30.096 134.133 30.032 133.952 29.904C133.781 29.7653 133.696 29.5253 133.696 29.184V25.776Z" fill="white"/>
</svg>
